<svg xmlns="http://www.w3.org/2000/svg" width="178.63" height="35" viewBox="0 0 178.63 35"><rect class="svg__rect" x="0" y="0" width="66.31" height="35" fill="#31C4F3"/><rect class="svg__rect" x="64.31" y="0" width="114.32" height="35" fill="#389AD5"/><path class="svg__text" d="M17.33 22L14.22 22L14.22 13.47L17.14 13.47Q18.59 13.47 19.34 14.05Q20.10 14.63 20.10 15.78L20.10 15.78Q20.10 16.36 19.78 16.83Q19.47 17.30 18.86 17.56L18.86 17.56Q19.55 17.75 19.93 18.26Q20.31 18.78 20.31 19.51L20.31 19.51Q20.31 20.71 19.53 21.36Q18.76 22 17.33 22L17.33 22ZM15.70 18.15L15.70 20.82L17.35 20.82Q18.04 20.82 18.44 20.47Q18.83 20.13 18.83 19.51L18.83 19.51Q18.83 18.18 17.47 18.15L17.47 18.15L15.70 18.15ZM15.70 14.66L15.70 17.06L17.15 17.06Q17.84 17.06 18.23 16.75Q18.62 16.43 18.62 15.86L18.62 15.86Q18.62 15.23 18.26 14.95Q17.90 14.66 17.14 14.66L17.14 14.66L15.70 14.66ZM27.89 22L24.78 22L24.78 13.47L27.70 13.47Q29.15 13.47 29.90 14.05Q30.66 14.63 30.66 15.78L30.66 15.78Q30.66 16.36 30.34 16.83Q30.03 17.30 29.42 17.56L29.42 17.56Q30.11 17.75 30.49 18.26Q30.86 18.78 30.86 19.51L30.86 19.51Q30.86 20.71 30.09 21.36Q29.32 22 27.89 22L27.89 22ZM26.26 18.15L26.26 20.82L27.90 20.82Q28.60 20.82 28.99 20.47Q29.39 20.13 29.39 19.51L29.39 19.51Q29.39 18.18 28.03 18.15L28.03 18.15L26.26 18.15ZM26.26 14.66L26.26 17.06L27.71 17.06Q28.40 17.06 28.79 16.75Q29.18 16.43 29.18 15.86L29.18 15.86Q29.18 15.23 28.82 14.95Q28.46 14.66 27.70 14.66L27.70 14.66L26.26 14.66ZM37.79 22L35.33 22L35.33 13.47L37.85 13.47Q38.98 13.47 39.86 13.97Q40.74 14.48 41.22 15.40Q41.70 16.33 41.70 17.52L41.70 17.52L41.70 17.95Q41.70 19.16 41.21 20.08Q40.73 21.00 39.84 21.50Q38.94 22 37.79 22L37.79 22ZM36.82 14.66L36.82 20.82L37.78 20.82Q38.95 20.82 39.57 20.09Q40.20 19.36 40.21 17.99L40.21 17.99L40.21 17.52Q40.21 16.13 39.61 15.40Q39.00 14.66 37.85 14.66L37.85 14.66L36.82 14.66ZM48.62 22L46.16 22L46.16 13.47L48.68 13.47Q49.81 13.47 50.69 13.97Q51.56 14.48 52.05 15.40Q52.53 16.33 52.53 17.52L52.53 17.52L52.53 17.95Q52.53 19.16 52.04 20.08Q51.56 21.00 50.67 21.50Q49.77 22 48.62 22L48.62 22ZM47.64 14.66L47.64 20.82L48.61 20.82Q49.78 20.82 50.40 20.09Q51.03 19.36 51.04 17.99L51.04 17.99L51.04 17.52Q51.04 16.13 50.43 15.40Q49.83 14.66 48.68 14.66L48.68 14.66L47.64 14.66Z" fill="#FFFFFF"/><path class="svg__text" d="M80.88 22L78.50 22L78.50 13.60L80.88 13.60L80.88 16.76L84.12 16.76L84.12 13.60L86.49 13.60L86.49 22L84.12 22L84.12 18.72L80.88 18.72L80.88 22ZM91.22 17.80L91.22 17.80Q91.22 16.55 91.83 15.55Q92.43 14.56 93.49 14.00Q94.56 13.43 95.89 13.43L95.89 13.43Q97.22 13.43 98.28 14.00Q99.35 14.56 99.95 15.55Q100.56 16.55 100.56 17.80L100.56 17.80Q100.56 19.05 99.95 20.04Q99.35 21.04 98.28 21.60Q97.22 22.17 95.89 22.17L95.89 22.17Q94.56 22.17 93.49 21.60Q92.43 21.04 91.83 20.04Q91.22 19.05 91.22 17.80ZM93.62 17.80L93.62 17.80Q93.62 18.51 93.92 19.05Q94.22 19.60 94.74 19.90Q95.26 20.20 95.89 20.20L95.89 20.20Q96.53 20.20 97.04 19.90Q97.56 19.60 97.86 19.05Q98.16 18.51 98.16 17.80L98.16 17.80Q98.16 17.09 97.86 16.54Q97.56 16 97.04 15.70Q96.53 15.40 95.89 15.40L95.89 15.40Q95.25 15.40 94.74 15.70Q94.22 16 93.92 16.54Q93.62 17.09 93.62 17.80ZM104.70 21.24L104.70 21.24L105.48 19.49Q106.04 19.86 106.79 20.09Q107.53 20.32 108.25 20.32L108.25 20.32Q109.62 20.32 109.62 19.64L109.62 19.64Q109.62 19.28 109.23 19.11Q108.84 18.93 107.98 18.74L107.98 18.74Q107.03 18.53 106.39 18.30Q105.76 18.06 105.30 17.55Q104.85 17.03 104.85 16.16L104.85 16.16Q104.85 15.39 105.27 14.77Q105.69 14.15 106.52 13.79Q107.36 13.43 108.56 13.43L108.56 13.43Q109.39 13.43 110.19 13.62Q111.00 13.80 111.62 14.17L111.62 14.17L110.88 15.93Q109.68 15.28 108.55 15.28L108.55 15.28Q107.84 15.28 107.52 15.49Q107.20 15.70 107.20 16.04L107.20 16.04Q107.20 16.37 107.58 16.54Q107.96 16.71 108.81 16.89L108.81 16.89Q109.78 17.10 110.41 17.33Q111.03 17.56 111.50 18.07Q111.96 18.58 111.96 19.46L111.96 19.46Q111.96 20.21 111.54 20.83Q111.12 21.44 110.28 21.80Q109.44 22.17 108.24 22.17L108.24 22.17Q107.22 22.17 106.26 21.92Q105.30 21.67 104.70 21.24ZM118.92 22L116.54 22L116.54 13.60L120.38 13.60Q121.52 13.60 122.36 13.98Q123.20 14.35 123.66 15.06Q124.11 15.76 124.11 16.71L124.11 16.71Q124.11 17.66 123.66 18.35Q123.20 19.05 122.36 19.42Q121.52 19.80 120.38 19.80L120.38 19.80L118.92 19.80L118.92 22ZM118.92 15.47L118.92 17.93L120.23 17.93Q120.97 17.93 121.34 17.61Q121.71 17.29 121.71 16.71L121.71 16.71Q121.71 16.12 121.34 15.80Q120.97 15.47 120.23 15.47L120.23 15.47L118.92 15.47ZM131.24 22L128.87 22L128.87 13.60L131.24 13.60L131.24 22ZM138.21 15.48L135.63 15.48L135.63 13.60L143.15 13.60L143.15 15.48L140.58 15.48L140.58 22L138.21 22L138.21 15.48ZM148.94 22L146.51 22L150.22 13.60L152.57 13.60L156.28 22L153.81 22L153.15 20.37L149.60 20.37L148.94 22ZM151.38 15.93L150.29 18.61L152.45 18.61L151.38 15.93ZM166.82 22L160.44 22L160.44 13.60L162.81 13.60L162.81 20.11L166.82 20.11L166.82 22Z" fill="#FFFFFF" x="77.31"/></svg>